<mxfile host="app.diagrams.net" modified="2023-04-07T17:06:20.209Z" agent="Mozilla/5.0 (Windows NT 10.0; Win64; x64; rv:109.0) Gecko/20100101 Firefox/111.0" etag="nklYV7hd4Qw6robPPTAh" version="21.1.5" type="github">
  <diagram name="Page-1" id="4x8wr2dKBE53NzWqvK9O">
    <mxGraphModel dx="954" dy="662" grid="1" gridSize="10" guides="1" tooltips="1" connect="1" arrows="1" fold="1" page="1" pageScale="1" pageWidth="850" pageHeight="1100" math="0" shadow="0">
      <root>
        <mxCell id="0" />
        <mxCell id="1" parent="0" />
        <mxCell id="by0jNYgNoTmWz5rRNsmm-1" value="&lt;font style=&quot;font-size: 20px;&quot;&gt;&lt;b&gt;1&lt;/b&gt;&lt;/font&gt;" style="ellipse;whiteSpace=wrap;html=1;aspect=fixed;" vertex="1" parent="1">
          <mxGeometry x="345" y="120" width="80" height="80" as="geometry" />
        </mxCell>
        <mxCell id="by0jNYgNoTmWz5rRNsmm-2" value="&lt;b&gt;&lt;font style=&quot;font-size: 20px;&quot;&gt;2&lt;/font&gt;&lt;/b&gt;" style="ellipse;whiteSpace=wrap;html=1;aspect=fixed;" vertex="1" parent="1">
          <mxGeometry x="120" y="280" width="80" height="80" as="geometry" />
        </mxCell>
        <mxCell id="by0jNYgNoTmWz5rRNsmm-3" value="&lt;b&gt;&lt;font style=&quot;font-size: 20px;&quot;&gt;4&lt;/font&gt;&lt;/b&gt;" style="ellipse;whiteSpace=wrap;html=1;aspect=fixed;" vertex="1" parent="1">
          <mxGeometry x="570" y="280" width="80" height="80" as="geometry" />
        </mxCell>
        <mxCell id="by0jNYgNoTmWz5rRNsmm-4" value="&lt;b&gt;&lt;font style=&quot;font-size: 20px;&quot;&gt;3&lt;/font&gt;&lt;/b&gt;" style="ellipse;whiteSpace=wrap;html=1;aspect=fixed;" vertex="1" parent="1">
          <mxGeometry x="345" y="470" width="80" height="80" as="geometry" />
        </mxCell>
        <mxCell id="by0jNYgNoTmWz5rRNsmm-5" value="" style="endArrow=classic;html=1;rounded=0;entryX=-0.012;entryY=0.825;entryDx=0;entryDy=0;entryPerimeter=0;strokeWidth=3;" edge="1" parent="1" target="by0jNYgNoTmWz5rRNsmm-1">
          <mxGeometry width="50" height="50" relative="1" as="geometry">
            <mxPoint x="190" y="290" as="sourcePoint" />
            <mxPoint x="240" y="240" as="targetPoint" />
          </mxGeometry>
        </mxCell>
        <mxCell id="by0jNYgNoTmWz5rRNsmm-7" value="&lt;font style=&quot;font-size: 16px;&quot;&gt;-11+8+6+5=8&lt;/font&gt;" style="text;html=1;align=center;verticalAlign=middle;resizable=0;points=[];autosize=1;strokeColor=none;fillColor=none;rotation=-35;" vertex="1" parent="1">
          <mxGeometry x="180" y="210" width="120" height="30" as="geometry" />
        </mxCell>
        <mxCell id="by0jNYgNoTmWz5rRNsmm-8" value="" style="endArrow=classic;html=1;rounded=0;strokeWidth=3;" edge="1" parent="1">
          <mxGeometry width="50" height="50" relative="1" as="geometry">
            <mxPoint x="385" y="460" as="sourcePoint" />
            <mxPoint x="384.5" y="210" as="targetPoint" />
          </mxGeometry>
        </mxCell>
        <mxCell id="by0jNYgNoTmWz5rRNsmm-10" value="" style="endArrow=classic;html=1;rounded=0;strokeWidth=3;" edge="1" parent="1">
          <mxGeometry width="50" height="50" relative="1" as="geometry">
            <mxPoint x="430" y="170" as="sourcePoint" />
            <mxPoint x="580" y="290" as="targetPoint" />
          </mxGeometry>
        </mxCell>
        <mxCell id="by0jNYgNoTmWz5rRNsmm-11" value="" style="endArrow=classic;html=1;rounded=0;entryX=-0.012;entryY=0.213;entryDx=0;entryDy=0;entryPerimeter=0;strokeWidth=3;" edge="1" parent="1" target="by0jNYgNoTmWz5rRNsmm-4">
          <mxGeometry width="50" height="50" relative="1" as="geometry">
            <mxPoint x="190" y="360" as="sourcePoint" />
            <mxPoint x="374" y="276" as="targetPoint" />
          </mxGeometry>
        </mxCell>
        <mxCell id="by0jNYgNoTmWz5rRNsmm-12" value="" style="endArrow=classic;html=1;rounded=0;strokeWidth=3;" edge="1" parent="1">
          <mxGeometry width="50" height="50" relative="1" as="geometry">
            <mxPoint x="210" y="319.5" as="sourcePoint" />
            <mxPoint x="570" y="319.5" as="targetPoint" />
          </mxGeometry>
        </mxCell>
        <mxCell id="by0jNYgNoTmWz5rRNsmm-14" value="" style="endArrow=classic;html=1;rounded=0;strokeWidth=3;" edge="1" parent="1">
          <mxGeometry width="50" height="50" relative="1" as="geometry">
            <mxPoint x="580" y="360" as="sourcePoint" />
            <mxPoint x="430" y="490" as="targetPoint" />
          </mxGeometry>
        </mxCell>
        <mxCell id="by0jNYgNoTmWz5rRNsmm-15" value="&lt;font style=&quot;font-size: 16px;&quot;&gt;11+8-6-5=8&lt;/font&gt;" style="text;html=1;align=center;verticalAlign=middle;resizable=0;points=[];autosize=1;strokeColor=none;fillColor=none;rotation=40;" vertex="1" parent="1">
          <mxGeometry x="180.0027692026052" y="420.0018668453976" width="110" height="30" as="geometry" />
        </mxCell>
        <mxCell id="by0jNYgNoTmWz5rRNsmm-16" value="&lt;font style=&quot;font-size: 16px;&quot;&gt;11+8+6-5=20&lt;/font&gt;" style="text;html=1;align=center;verticalAlign=middle;resizable=0;points=[];autosize=1;strokeColor=none;fillColor=none;rotation=0;" vertex="1" parent="1">
          <mxGeometry x="225.0042585168419" y="290.0039851795443" width="120" height="30" as="geometry" />
        </mxCell>
        <mxCell id="by0jNYgNoTmWz5rRNsmm-17" value="&lt;font style=&quot;font-size: 16px;&quot;&gt;11+8+6-5=20&lt;/font&gt;" style="text;html=1;align=center;verticalAlign=middle;resizable=0;points=[];autosize=1;strokeColor=none;fillColor=none;rotation=40;" vertex="1" parent="1">
          <mxGeometry x="470.0042585168419" y="200.00398517954434" width="120" height="30" as="geometry" />
        </mxCell>
        <mxCell id="by0jNYgNoTmWz5rRNsmm-18" value="&lt;font style=&quot;font-size: 16px;&quot;&gt;-11+8+6+5=8&lt;/font&gt;" style="text;html=1;align=center;verticalAlign=middle;resizable=0;points=[];autosize=1;strokeColor=none;fillColor=none;rotation=90;" vertex="1" parent="1">
          <mxGeometry x="345.0042585168419" y="380.0039851795443" width="120" height="30" as="geometry" />
        </mxCell>
        <mxCell id="by0jNYgNoTmWz5rRNsmm-19" value="&lt;font style=&quot;font-size: 16px;&quot;&gt;11-8-6+5=2&lt;/font&gt;" style="text;html=1;align=center;verticalAlign=middle;resizable=0;points=[];autosize=1;strokeColor=none;fillColor=none;rotation=-45;" vertex="1" parent="1">
          <mxGeometry x="500.0042585168419" y="410.0039851795443" width="110" height="30" as="geometry" />
        </mxCell>
      </root>
    </mxGraphModel>
  </diagram>
</mxfile>
